USFL
nRows=128
nColumns=2
inDegrees=yes
endheader
time	soleus_r	
2.6875	 43.548754	
2.75	 43.590659	
2.8125	 43.746679	
2.875	 43.783737	
2.9375	 43.763790	
3	 43.854734	
3.0625	 43.810102	
3.125	 43.856597	
3.1875	 43.870492	
3.25	 43.891576	
3.3125	 43.878345	
3.375	 43.839394	
3.4375	 43.837259	
3.5	 43.829129	
3.5625	 43.839684	
3.625	 43.786852	
3.6875	 43.792281	
3.75	 43.749052	
3.8125	 43.771748	
3.875	 43.765701	
3.9375	 43.809704	
4	 43.804990	
4.0625	 43.715204	
4.125	 43.629097	
4.1875	 43.676219	
4.25	 43.641147	
4.3125	 43.554422	
4.375	 43.488336	
4.4375	 43.523895	
4.5	 43.464305	
4.5625	 43.578611	
4.625	 43.540169	
4.6875	 43.424924	
4.75	 43.520458	
4.8125	 43.501899	
4.875	 43.380238	
4.9375	 43.310213	
5	 43.197750	
5.0625	 43.311756	
5.125	 43.320722	
5.1875	 32.979896	
5.25	 32.906398	
5.3125	 32.696826	
5.375	 32.679561	
5.4375	 29.940524	
5.5	 29.982666	
5.5625	 29.996502	
5.625	 30.365188	
5.6875	 30.609070	
5.75	 30.591728	
5.8125	 30.312716	
5.875	 30.127993	
5.9375	 30.191510	
6	 30.173064	
6.0625	 30.230562	
6.125	 30.319487	
6.1875	 30.275079	
6.25	 30.357942	
6.3125	 30.357462	
6.375	 30.502158	
6.4375	 30.588527	
6.5	 30.535581	
6.5625	 29.783167	
6.625	 29.975942	
6.6875	 30.128665	
6.75	 30.299268	
6.8125	 27.915479	
6.875	 27.992790	
6.9375	 28.265025	
7	 28.188580	
7.0625	 28.204588	
7.125	 28.212051	
7.1875	 28.241851	
7.25	 28.380268	
7.3125	 25.952650	
7.375	 25.980600	
7.4375	 25.943949	
7.5	 25.760087	
7.5625	 25.753937	
7.625	 25.740843	
7.6875	 25.668744	
7.75	 25.681987	
7.8125	 25.635353	
7.875	 25.522277	
7.9375	 25.474448	
8	 25.453522	
8.0625	 25.450180	
8.125	 25.351860	
8.1875	 25.323108	
8.25	 25.381822	
8.3125	 25.373475	
8.375	 25.363254	
8.4375	 25.252795	
8.5	 25.198545	
8.5625	 25.175169	
8.625	 25.087875	
8.6875	 25.273432	
8.75	 25.252288	
8.8125	 25.225573	
8.875	 25.107036	
8.9375	 25.144787	
9	 25.200802	
9.0625	 25.178281	
9.125	 25.156640	
9.1875	 24.968012	
9.25	 24.792930	
9.3125	 24.849472	
9.375	 24.896699	
9.4375	 24.872940	
9.5	 24.888770	
9.5625	 24.899290	
9.625	 24.896549	
9.6875	 24.967986	
9.75	 25.087538	
9.8125	 25.115409	
9.875	 25.073111	
9.9375	 25.313730	
10	 25.522454	
10.0625	 25.459457	
10.125	 25.434081	
10.1875	 25.517145	
10.25	 33.938316	
10.3125	 34.241328	
10.375	 34.109977	
10.4375	 33.927241	
10.5	 33.861613	
10.5625	 33.744505	
10.625	 33.772060	
